<svg xmlns="http://www.w3.org/2000/svg" version="1.1" xmlns:xlink="http://www.w3.org/1999/xlink"
    xmlns:svgjs="http://svgjs.com/svgjs" width="1440" height="560" preserveAspectRatio="none" viewBox="0 0 1440 560">
    <g mask="url(&quot;#SvgjsMask1001&quot;)" fill="none">
        <rect width="1440" height="560" x="0" y="0" fill="rgba(99, 99, 99, 1)"></rect>
        <path
            d="M0,693.323C129.64,707.744,250.693,631.299,358.877,558.423C465.292,486.738,569.038,400.524,613.389,280.125C656.46,163.201,608.223,38.305,596.157,-85.714C583.417,-216.662,634.723,-376.511,540.564,-468.401C445.242,-561.427,283.432,-495.259,152.343,-518.834C39.528,-539.123,-66.386,-632.76,-175.339,-597.149C-284.156,-561.583,-311.89,-421.322,-393.046,-340.576C-483.319,-250.759,-636.774,-218.045,-677.601,-97.424C-719.024,24.96,-670.181,165.299,-601.26,274.586C-536.312,377.574,-410.903,414.325,-310.989,483.909C-206.314,556.808,-126.776,679.221,0,693.323"
            fill="#4f4f4f"></path>
        <path
            d="M1440 1066.464C1536.903 1064.654 1629.016 1033.2 1712.836 984.5409999999999 1799.646 934.146 1882.786 872.4639999999999 1928.298 782.998 1974.788 691.61 2006.95 578.764 1967.377 484.175 1928.613 391.519 1805.07 375.414 1729.906 308.79499999999996 1668.046 253.96800000000002 1642.159 162.39 1566.5720000000001 128.93400000000003 1487.329 93.86000000000001 1391.496 89.48500000000001 1311.916 123.78699999999998 1235.12 156.889 1204.165 244.997 1149.8310000000001 308.567 1095.959 371.596 1020.181 417.22 993.9 495.86 965.232 581.643 969.761 675.878 998.409 761.668 1029.0149999999999 853.321 1081.009 939.971 1160.533 994.86 1241.312 1050.616 1341.864 1068.297 1440 1066.464"
            fill="#777777"></path>
    </g>
    <defs>
        <mask id="SvgjsMask1001">
            <rect width="1440" height="560" fill="#ffffff"></rect>
        </mask>
    </defs>
</svg>